<svg xmlns="http://www.w3.org/2000/svg" viewBox="0 0 16.110678 16.110678" width="512" height="512"><g transform="translate(-53.795 -280.464)"><circle class="face" cx="61.85" cy="288.519" r="8.055"/><circle class="left-eye" cx="64.809" cy="285.296" r="1.88" fill="#fff"/><circle class="left-pupil" cx="65.778" cy="284.63" r=".7"/><circle class="right-eye" cx="59.03" cy="283.826" r="1.88" fill="#fff"/><circle class="right-pupil" cx="58.027" cy="284.448" r=".7"/><path class="tongue" d="M64.96 290.714c-.763.714-1.946.974-2.718 1.07.022.055.043.111.074.165l1.136 1.967c.352.61 1.125.817 1.734.465l.318-.184c.61-.352.817-1.125.466-1.734z" fill="#fff"/><path class="mouth" d="M57.468 289.673s.377 2.488 4.268 2.488m4.268-2.488s-.377 2.488-4.268 2.488" fill="none" stroke="#fff" stroke-linecap="round" stroke-linejoin="round"/></g></svg>