<svg xmlns="http://www.w3.org/2000/svg" viewBox="0 0 16.110678 16.110678" width="512" height="512"><g transform="translate(-53.795 -280.464)"><circle class="face" cx="61.85" cy="288.519" r="8.055" fill="#ffd42a"/><circle class="left-eye" cx="64.809" cy="285.296" r="1.88" fill="#fff"/><circle class="left-pupil" cx="65.778" cy="284.63" r=".7" fill="#1a1a1a"/><circle class="right-eye" cx="59.03" cy="283.826" r="1.88" fill="#fff"/><circle class="right-pupil" cx="58.027" cy="284.448" r=".7" fill="#1a1a1a"/><path class="shadow" d="M56.382 282.614a8.055 8.055 0 0 0-2.587 5.905 8.055 8.055 0 0 0 8.055 8.055 8.055 8.055 0 0 0 7.005-4.087 8.055 8.055 0 0 1-.46.404 8.055 8.055 0 0 1-.656.469 8.055 8.055 0 0 1-.698.4 8.055 8.055 0 0 1-.735.33 8.055 8.055 0 0 1-.764.253 8.055 8.055 0 0 1-.786.177 8.055 8.055 0 0 1-.8.097 8.055 8.055 0 0 1-.569.02 8.055 8.055 0 0 1-.804-.04 8.055 8.055 0 0 1-.796-.12 8.055 8.055 0 0 1-.78-.2 8.055 8.055 0 0 1-.757-.276 8.055 8.055 0 0 1-.725-.35 8.055 8.055 0 0 1-.686-.421 8.055 8.055 0 0 1-.641-.487 8.055 8.055 0 0 1-.59-.55 8.055 8.055 0 0 1-.531-.604 8.055 8.055 0 0 1-.468-.655 8.055 8.055 0 0 1-.4-.699 8.055 8.055 0 0 1-.33-.735 8.055 8.055 0 0 1-.254-.764 8.055 8.055 0 0 1-.176-.785 8.055 8.055 0 0 1-.097-.8 8.055 8.055 0 0 1-.02-.57 8.055 8.055 0 0 1 .04-.804 8.055 8.055 0 0 1 .12-.796 8.055 8.055 0 0 1 .2-.78 8.055 8.055 0 0 1 .275-.757 8.055 8.055 0 0 1 .35-.725 8.055 8.055 0 0 1 .065-.105z" fill="#ffbc2a"/><path class="tongue" d="M64.96 290.714c-.763.714-1.946.974-2.718 1.07.022.055.043.111.074.165l1.136 1.967c.352.61 1.125.817 1.734.465l.318-.184c.61-.352.817-1.125.466-1.734z" fill="#f55"/><path class="mouth" d="M57.468 289.673s.377 2.488 4.268 2.488m4.268-2.488s-.377 2.488-4.268 2.488" fill="none" stroke="#1a1a1a" stroke-linecap="round" stroke-linejoin="round"/></g></svg>